<?xml version="1.0" encoding="utf-8" standalone="yes"?>
<svg
	xmlns="http://www.w3.org/2000/svg"
	xmlns:xlink="http://www.w3.org/1999/xlink" version="1.1" width="816" height="1056" viewBox="0 0 816 1056">
	<!--Generated by Aspose.Words for .NET 18.5-->
	<defs>
		<clipPath id="clip1">
			<path d="M-1,-1 L332,-1 L332,652.177978516 L-1,652.177978516 Z" clip-rule="evenodd"></path>
		</clipPath>
		<clipPath id="clip2">
			<path d="M-1,-1 L188,-1 L188,652.177978516 L-1,652.177978516 Z" clip-rule="evenodd"></path>
		</clipPath>
		<style type="text/css">svg{background:white}</style>
	</defs>
	<g transform="scale(1.33333)">
		<g>
			<g transform="matrix(1,0,0,1,30,0)">
				<path d="M0,0 L552,0 L552,35 L0,35 Z" fill="#e6e9eb" fill-rule="evenodd"></path>
				<g transform="matrix(1,0,0,1,0,35)">
					<text>
						<tspan x="0" y="42.216999054" font-family="Century Gothic" font-weight="bold" font-style="normal" font-size="37" fill="#576d7b">DOM WEBSTER</tspan>
					</text>
				</g>
			</g>
			<g transform="matrix(1,0,0,1,30,85.364997864)">
				<text>
					<tspan x="0" y="5.012000084" font-family="Century Gothic" font-weight="normal" font-style="normal" font-size="2" fill="#000000"></tspan>
				</text>
				<path d="M-1.450000048,6.452000141 L553.450012207,6.452000141 " stroke-width="2" stroke-miterlimit="10" stroke="#8da6b6" fill="none" fill-rule="evenodd"></path>
				<g transform="matrix(1,0,0,1,0,32.451999664)">
					<g transform="matrix(1,0,0,1,0,0)" clip-path="url(#clip1)">
						<g transform="matrix(1,0,0,1,0.25,0.25)">
							<text>
								<tspan x="0" y="14.137000084" font-family="Century Gothic" font-weight="bold" font-style="normal" font-size="13" fill="#576d7b">OBJECTIVE </tspan>
							</text>
							<g transform="matrix(1,0,0,1,75.192001343,2.637000084)">
								<path d="M0,0 L248.107421875,0 L248.107421875,11.500000954 L0,11.500000954 Z" fill="#e6e9eb" fill-rule="evenodd"></path>
							</g>
						</g>
						<g transform="matrix(1,0,0,1,0.25,17.25)">
							<text>
								<tspan x="0" y="14.578000069" font-family="Century Gothic" font-weight="normal" font-style="normal" font-size="11" fill="#000000">To find a fulfilling position where I can apply my skills and </tspan>
								<tspan x="0" y="31.577999115" font-family="Century Gothic" font-weight="normal" font-style="normal" font-size="11" fill="#000000">knowledge.","def_previewtemplate_award": "Distinguished </tspan>
								<tspan x="0" y="48.577999115" font-family="Century Gothic" font-weight="normal" font-style="normal" font-size="11" fill="#000000">Service Award, 2011</tspan>
							</text>
						</g>
						<g transform="matrix(1,0,0,1,0.25,68.25)">
							<text>
								<tspan x="0" y="6.006000042" font-family="Century Gothic" font-weight="normal" font-style="normal" font-size="1" fill="#000000"></tspan>
							</text>
						</g>
						<path d="M-1.200000048,74.975997925 L332.199981689,74.975997925 " stroke-width="1" stroke-miterlimit="10" stroke="#8da6b6" fill="none" fill-rule="evenodd"></path>
						<g transform="matrix(1,0,0,1,0.25,100.475997925)">
							<text>
								<tspan x="0" y="14.137000084" font-family="Century Gothic" font-weight="bold" font-style="normal" font-size="13" fill="#576d7b">PROFESSIONAL SUMMARY </tspan>
							</text>
							<g transform="matrix(1,0,0,1,173.240997314,2.637000084)">
								<path d="M0,0 L149.483886719,0 L149.483886719,11.500000954 L0,11.500000954 Z" fill="#e6e9eb" fill-rule="evenodd"></path>
							</g>
						</g>
						<g transform="matrix(1,0,0,1,0.25,117.475997925)">
							<text>
								<tspan x="0" y="14.578000069" font-family="Century Gothic" font-weight="normal" font-style="normal" font-size="11" fill="#000000">Accomplished Operations executive with a successful track </tspan>
								<tspan x="0" y="31.577999115" font-family="Century Gothic" font-weight="normal" font-style="normal" font-size="11" fill="#000000">record overseeing regional Marketing, IT, HR/training and </tspan>
								<tspan x="0" y="48.577999115" font-family="Century Gothic" font-weight="normal" font-style="normal" font-size="11" fill="#000000">property in company and franchise operations for a large </tspan>
								<tspan x="0" y="65.57800293" font-family="Century Gothic" font-weight="normal" font-style="normal" font-size="11" fill="#000000">chain of restaurants.</tspan>
							</text>
						</g>
						<g transform="matrix(1,0,0,1,0.25,185.475997925)">
							<text>
								<tspan x="0" y="6.006000042" font-family="Century Gothic" font-weight="normal" font-style="normal" font-size="1" fill="#000000"></tspan>
							</text>
						</g>
						<path d="M-1.200000048,192.20199585 L332.199981689,192.20199585 " stroke-width="1" stroke-miterlimit="10" stroke="#8da6b6" fill="none" fill-rule="evenodd"></path>
						<g transform="matrix(1,0,0,1,0.25,217.70199585)">
							<text>
								<tspan x="0" y="14.137000084" font-family="Century Gothic" font-weight="bold" font-style="normal" font-size="13" fill="#576d7b">EXPERIENCE </tspan>
							</text>
							<g transform="matrix(1,0,0,1,83.233001709,2.637000084)">
								<path d="M0,0 L240.249023438,0 L240.249023438,11.500000954 L0,11.500000954 Z" fill="#e6e9eb" fill-rule="evenodd"></path>
							</g>
						</g>
						<g transform="matrix(1,0,0,1,0.25,234.70199585)">
							<text>
								<tspan x="0" y="14.578000069" font-family="Century Gothic" font-weight="bold" font-style="normal" font-size="11" fill="#000000">Executive Vice President</tspan>
								<tspan x="130.679000854" y="14.578000069" font-family="Century Gothic" font-weight="normal" font-style="normal" font-size="11" fill="#000000"> - 09/2015 - 02/2019</tspan>
							</text>
						</g>
						<g transform="matrix(1,0,0,1,0.25,251.70199585)">
							<text>
								<tspan x="0" y="14.578000069" font-family="Century Gothic" font-weight="bold" font-style="normal" font-size="11" fill="#000000">Pizza Hut UK &amp; Ireland - St Albans, Herts </tspan>
							</text>
						</g>
						<g transform="matrix(1,0,0,1,0.200000003,268.70199585)">
							<text>
								<tspan x="-0.5" y="16.827999115" font-family="Symbol" font-weight="normal" font-style="normal" font-size="8.25" fill="#000000">●</tspan>
								<tspan x="10.050000191" y="17.577999115" font-family="Century Gothic" font-weight="normal" font-style="normal" font-size="11" fill="#000000">Led operations involved in running the brand including </tspan>
								<tspan x="10.050000191" y="34.577999115" font-family="Century Gothic" font-weight="normal" font-style="normal" font-size="11" fill="#000000">Marketing, IT, HR/training, development/construction, </tspan>
								<tspan x="10.050000191" y="51.577999115" font-family="Century Gothic" font-weight="normal" font-style="normal" font-size="11" fill="#000000">property and P&amp;L for 200 store locations.</tspan>
							</text>
						</g>
						<g transform="matrix(1,0,0,1,0.200000003,322.70199585)">
							<text>
								<tspan x="-0.5" y="13.828000069" font-family="Symbol" font-weight="normal" font-style="normal" font-size="8.25" fill="#000000">●</tspan>
								<tspan x="10.050000191" y="14.578000069" font-family="Century Gothic" font-weight="normal" font-style="normal" font-size="11" fill="#000000">Oversaw operations for all regional company and franchise </tspan>
								<tspan x="10.050000191" y="31.577999115" font-family="Century Gothic" font-weight="normal" font-style="normal" font-size="11" fill="#000000">locations.</tspan>
							</text>
						</g>
						<g transform="matrix(1,0,0,1,0.200000003,356.70199585)">
							<text>
								<tspan x="-0.5" y="13.828000069" font-family="Symbol" font-weight="normal" font-style="normal" font-size="8.25" fill="#000000">●</tspan>
								<tspan x="10.050000191" y="14.578000069" font-family="Century Gothic" font-weight="normal" font-style="normal" font-size="11" fill="#000000">Assessed profitability of existing company processes to </tspan>
								<tspan x="10.050000191" y="31.577999115" font-family="Century Gothic" font-weight="normal" font-style="normal" font-size="11" fill="#000000">determine optimum organisational structure for maximum </tspan>
								<tspan x="10.050000191" y="48.577999115" font-family="Century Gothic" font-weight="normal" font-style="normal" font-size="11" fill="#000000">revenue growth.</tspan>
							</text>
						</g>
						<g transform="matrix(1,0,0,1,0.25,407.70199585)">
							<text>
								<tspan x="0" y="35.577999115" font-family="Century Gothic" font-weight="bold" font-style="normal" font-size="11" fill="#000000">Senior Vice President</tspan>
								<tspan x="111.537002563" y="35.577999115" font-family="Century Gothic" font-weight="normal" font-style="normal" font-size="11" fill="#000000"> - 08/2007 - 09/2015</tspan>
							</text>
						</g>
						<g transform="matrix(1,0,0,1,0.25,445.70199585)">
							<text>
								<tspan x="0" y="14.578000069" font-family="Century Gothic" font-weight="bold" font-style="normal" font-size="11" fill="#000000">Café Rouge - London </tspan>
							</text>
						</g>
						<g transform="matrix(1,0,0,1,0.200000003,462.70199585)">
							<text>
								<tspan x="-0.5" y="16.827999115" font-family="Symbol" font-weight="normal" font-style="normal" font-size="8.25" fill="#000000">●</tspan>
								<tspan x="10.050000191" y="17.577999115" font-family="Century Gothic" font-weight="normal" font-style="normal" font-size="11" fill="#000000">Directed departmental alignment on strategies to create </tspan>
								<tspan x="10.050000191" y="34.577999115" font-family="Century Gothic" font-weight="normal" font-style="normal" font-size="11" fill="#000000">strong sales.</tspan>
							</text>
						</g>
						<g transform="matrix(1,0,0,1,0.200000003,499.70199585)">
							<text>
								<tspan x="-0.5" y="13.828000069" font-family="Symbol" font-weight="normal" font-style="normal" font-size="8.25" fill="#000000">●</tspan>
								<tspan x="10.050000191" y="14.578000069" font-family="Century Gothic" font-weight="normal" font-style="normal" font-size="11" fill="#000000">Cultivated strong franchise owner relationships to achieve </tspan>
								<tspan x="10.050000191" y="31.577999115" font-family="Century Gothic" font-weight="normal" font-style="normal" font-size="11" fill="#000000">high operating standards.</tspan>
							</text>
						</g>
						<g transform="matrix(1,0,0,1,0.200000003,533.702026367)">
							<text>
								<tspan x="-0.5" y="13.828000069" font-family="Symbol" font-weight="normal" font-style="normal" font-size="8.25" fill="#000000">●</tspan>
								<tspan x="10.050000191" y="14.578000069" font-family="Century Gothic" font-weight="normal" font-style="normal" font-size="11" fill="#000000">Implemented process improvements to increase customer </tspan>
								<tspan x="10.050000191" y="31.577999115" font-family="Century Gothic" font-weight="normal" font-style="normal" font-size="11" fill="#000000">loyalty and satisfaction.</tspan>
							</text>
						</g>
						<g transform="matrix(1,0,0,1,0.25,567.702026367)">
							<text>
								<tspan x="0" y="6.006000042" font-family="Century Gothic" font-weight="normal" font-style="normal" font-size="1" fill="#000000"></tspan>
							</text>
						</g>
						<path d="M-1.200000048,574.428039551 L332.199981689,574.428039551 " stroke-width="1" stroke-miterlimit="10" stroke="#8da6b6" fill="none" fill-rule="evenodd"></path>
						<g transform="matrix(1,0,0,1,0.25,599.927978516)">
							<text>
								<tspan x="0" y="14.137000084" font-family="Century Gothic" font-weight="bold" font-style="normal" font-size="13" fill="#576d7b">EDUCATION </tspan>
							</text>
							<g transform="matrix(1,0,0,1,82.206001282,2.637000084)">
								<path d="M0,0 L240.287109375,0 L240.287109375,11.500000954 L0,11.500000954 Z" fill="#e6e9eb" fill-rule="evenodd"></path>
							</g>
						</g>
						<g transform="matrix(1,0,0,1,0.25,616.927978516)">
							<text>
								<tspan x="0" y="14.578000069" font-family="Century Gothic" font-weight="bold" font-style="normal" font-size="11" fill="#000000">BA (Hons)</tspan>
								<tspan x="51.916999817" y="14.578000069" font-family="Century Gothic" font-weight="normal" font-style="normal" font-size="11" fill="#000000">, </tspan>
								<tspan x="58.006999969" y="14.578000069" font-family="Century Gothic" font-weight="bold" font-style="normal" font-size="11" fill="#000000">2006</tspan>
							</text>
						</g>
						<g transform="matrix(1,0,0,1,0.25,633.927978516)">
							<text>
								<tspan x="0" y="14.578000069" font-family="Century Gothic" font-weight="bold" font-style="normal" font-size="11" fill="#000000">University Of Westminster </tspan>
								<tspan x="135.057006836" y="14.578000069" font-family="Century Gothic" font-weight="normal" font-style="normal" font-size="11" fill="#000000">- Greater London</tspan>
							</text>
						</g>
					</g>
					<g transform="matrix(1,0,0,1,365,0)" clip-path="url(#clip2)">
						<g transform="matrix(1,0,0,1,0.25,0.25)">
							<text>
								<tspan x="0" y="14.137000084" font-family="Century Gothic" font-weight="bold" font-style="normal" font-size="13" fill="#576d7b">CONTACT </tspan>
							</text>
							<g transform="matrix(1,0,0,1,68.981002808,2.637000084)">
								<path d="M0,0 L109.172851563,0 L109.172851563,11.500000954 L0,11.500000954 Z" fill="#e6e9eb" fill-rule="evenodd"></path>
							</g>
						</g>
						<g transform="matrix(1,0,0,1,0.25,17.25)">
							<text>
								<tspan x="0" y="14.578000069" font-family="Century Gothic" font-weight="bold" font-style="normal" font-size="11" fill="#000000">Address</tspan>
								<tspan x="42.89899826" y="14.578000069" font-family="Century Gothic" font-weight="normal" font-style="normal" font-size="11" fill="#000000"> : 46 Roman Rd </tspan>
								<tspan x="0" y="31.577999115" font-family="Century Gothic" font-weight="normal" font-style="normal" font-size="11" fill="#000000">Leeds, LS2 3ZR</tspan>
							</text>
						</g>
						<g transform="matrix(1,0,0,1,0.25,51.25)">
							<text>
								<tspan x="0" y="14.578000069" font-family="Century Gothic" font-weight="bold" font-style="normal" font-size="11" fill="#000000">Phone</tspan>
								<tspan x="33.445999146" y="14.578000069" font-family="Century Gothic" font-weight="normal" font-style="normal" font-size="11" fill="#000000"> : 07912 345 678 </tspan>
							</text>
						</g>
						<g transform="matrix(1,0,0,1,0.25,68.25)">
							<text>
								<tspan x="0" y="14.578000069" font-family="Century Gothic" font-weight="bold" font-style="normal" font-size="11" fill="#000000">Email</tspan>
								<tspan x="28.596000671" y="14.578000069" font-family="Century Gothic" font-weight="normal" font-style="normal" font-size="10" fill="#000000"> :dom.webster@example.co.uk</tspan>
							</text>
						</g>
						<g transform="matrix(1,0,0,1,0.25,85.25)">
							<text>
								<tspan x="0" y="14.137000084" font-family="Century Gothic" font-weight="bold" font-style="normal" font-size="13" fill="#576d7b">SKILLS </tspan>
							</text>
							<g transform="matrix(1,0,0,1,53.794998169,2.637000084)">
								<path d="M0,0 L137.407226563,0 L137.407226563,11.500000954 L0,11.500000954 Z" fill="#e6e9eb" fill-rule="evenodd"></path>
							</g>
						</g>
						<g transform="matrix(1,0,0,1,0.200000003,102.25)">
							<text>
								<tspan x="-0.5" y="13.828000069" font-family="Symbol" font-weight="normal" font-style="normal" font-size="8.25" fill="#000000">●</tspan>
								<tspan x="10.050000191" y="14.578000069" font-family="Century Gothic" font-weight="normal" font-style="normal" font-size="11" fill="#000000">Executive team leadership</tspan>
							</text>
						</g>
						<g transform="matrix(1,0,0,1,0.200000003,119.25)">
							<text>
								<tspan x="-0.5" y="13.828000069" font-family="Symbol" font-weight="normal" font-style="normal" font-size="8.25" fill="#000000">●</tspan>
								<tspan x="10.050000191" y="14.578000069" font-family="Century Gothic" font-weight="normal" font-style="normal" font-size="11" fill="#000000">Multimillion pound P&amp;L </tspan>
								<tspan x="10.050000191" y="31.577999115" font-family="Century Gothic" font-weight="normal" font-style="normal" font-size="11" fill="#000000">management expertise for South </tspan>
								<tspan x="10.050000191" y="48.577999115" font-family="Century Gothic" font-weight="normal" font-style="normal" font-size="11" fill="#000000">East region</tspan>
							</text>
						</g>
						<g transform="matrix(1,0,0,1,0.200000003,170.25)">
							<text>
								<tspan x="-0.5" y="13.828000069" font-family="Symbol" font-weight="normal" font-style="normal" font-size="8.25" fill="#000000">●</tspan>
								<tspan x="10.050000191" y="14.578000069" font-family="Century Gothic" font-weight="normal" font-style="normal" font-size="11" fill="#000000">Client/Vendor relations</tspan>
							</text>
						</g>
						<g transform="matrix(1,0,0,1,0.200000003,187.25)">
							<text>
								<tspan x="-0.5" y="13.828000069" font-family="Symbol" font-weight="normal" font-style="normal" font-size="8.25" fill="#000000">●</tspan>
								<tspan x="10.050000191" y="14.578000069" font-family="Century Gothic" font-weight="normal" font-style="normal" font-size="11" fill="#000000">Marketing/product line </tspan>
								<tspan x="10.050000191" y="31.577999115" font-family="Century Gothic" font-weight="normal" font-style="normal" font-size="11" fill="#000000">development</tspan>
							</text>
						</g>
						<g transform="matrix(1,0,0,1,0.200000003,221.25)">
							<text>
								<tspan x="-0.5" y="13.828000069" font-family="Symbol" font-weight="normal" font-style="normal" font-size="8.25" fill="#000000">●</tspan>
								<tspan x="10.050000191" y="14.578000069" font-family="Century Gothic" font-weight="normal" font-style="normal" font-size="11" fill="#000000">Staff/training policy </tspan>
								<tspan x="10.050000191" y="31.577999115" font-family="Century Gothic" font-weight="normal" font-style="normal" font-size="11" fill="#000000">development</tspan>
							</text>
						</g>
						<g transform="matrix(1,0,0,1,0.200000003,255.25)">
							<text>
								<tspan x="-0.5" y="13.828000069" font-family="Symbol" font-weight="normal" font-style="normal" font-size="8.25" fill="#000000">●</tspan>
								<tspan x="10.050000191" y="14.578000069" font-family="Century Gothic" font-weight="normal" font-style="normal" font-size="11" fill="#000000">Process improvement</tspan>
							</text>
						</g>
						<g transform="matrix(1,0,0,1,0.25,272.25)">
							<text>
								<tspan x="0" y="6.006000042" font-family="Century Gothic" font-weight="normal" font-style="normal" font-size="1" fill="#000000"></tspan>
							</text>
						</g>
						<path d="M-1.200000048,278.976013184 L188.199996948,278.976013184 " stroke-width="1" stroke-miterlimit="10" stroke="#8da6b6" fill="none" fill-rule="evenodd"></path>
					</g>
				</g>
			</g>
		</g>
	</g>
</svg>