<?xml version="1.0" encoding="utf-8" standalone="yes"?>
<svg
	xmlns="http://www.w3.org/2000/svg"
	xmlns:xlink="http://www.w3.org/1999/xlink" version="1.1" width="816" height="1056" viewBox="0 0 816 1056">
	<!--Generated by Aspose.Words for .NET 18.5-->
	<defs>
		<clipPath id="clip1">
			<path d="M-1,2 L168,2 L168,144.5 L-1,144.5 Z" clip-rule="evenodd"></path>
		</clipPath>
		<clipPath id="clip2">
			<path d="M-1,2 L306,2 L306,144.5 L-1,144.5 Z" clip-rule="evenodd"></path>
		</clipPath>
		<clipPath id="clip3">
			<path d="M-1,-1 L168,-1 L168,544 L-1,544 Z" clip-rule="evenodd"></path>
		</clipPath>
		<clipPath id="clip4">
			<path d="M-1,-1 L306,-1 L306,544 L-1,544 Z" clip-rule="evenodd"></path>
		</clipPath>
		<style type="text/css">@import url('https://fonts.googleapis.com/css?family=Syncopate:400');svg{background:white}</style>
	</defs>
	<g transform="scale(1.33333)">
		<g>
			<g transform="matrix(1,0,0,1,50,0)">
				<text>
					<tspan x="0" y="37.403999329" font-family="Times New Roman" font-weight="normal" font-style="normal" font-size="12" fill="#000000"></tspan>
				</text>
			</g>
			<g transform="matrix(1,0,0,1,50,40)">
				<text>
					<tspan x="144.197006226" y="22.340000153" font-family="Syncopate" font-weight="normal" font-style="normal" font-size="24" fill="#000000">DOM WEBSTER</tspan>
				</text>
			</g>
			<g transform="matrix(1,0,0,1,50,80)">
				<text>
					<tspan x="0" y="8.486000061" font-family="Times New Roman" font-weight="normal" font-style="normal" font-size="7" fill="#000000"></tspan>
				</text>
			</g>
			<g transform="matrix(1,0,0,1,0,90)">
				<path d="M0,0 L50,0 L50,143.5 L0,143.5 Z" fill="#d9f0f7" fill-rule="evenodd"></path>
				<path d="M50,3 L217,3 L217,143.5 L50,143.5 Z" fill="#d9f0f7" fill-rule="evenodd"></path>
				<g transform="matrix(1,0,0,1,50,0)" clip-path="url(#clip1)">
					<g transform="matrix(1,0,0,1,0,29.5)">
						<text>
							<tspan x="0" y="13.697999954" font-family="Syncopate" font-weight="normal" font-style="normal" font-size="14" fill="#000000">CONTACT</tspan>
						</text>
					</g>
					<g transform="matrix(1,0,0,1,0,51.5)">
						<text>
							<tspan x="0" y="10.836999893" font-family="Times New Roman" font-weight="bold" font-style="normal" font-size="10" fill="#000000">Address</tspan>
							<tspan x="35.005001068" y="10.836999893" font-family="Times New Roman" font-weight="normal" font-style="normal" font-size="10" fill="#000000"> : 46 Roman Rd,  </tspan>
							<tspan x="0" y="23.836999893" font-family="Times New Roman" font-weight="normal" font-style="normal" font-size="10" fill="#000000">Leeds, LS2 3ZR</tspan>
						</text>
					</g>
					<g transform="matrix(1,0,0,1,0,82.5)">
						<text>
							<tspan x="0" y="10.836999893" font-family="Times New Roman" font-weight="bold" font-style="normal" font-size="10" fill="#000000">Phone</tspan>
							<tspan x="26.670000076" y="10.836999893" font-family="Times New Roman" font-weight="normal" font-style="normal" font-size="10" fill="#000000"> : 07912 345 678 </tspan>
						</text>
					</g>
					<g transform="matrix(1,0,0,1,0,100.5)">
						<text>
							<tspan x="0" y="10.836999893" font-family="Times New Roman" font-weight="bold" font-style="normal" font-size="10" fill="#000000">Email</tspan>
							<tspan x="25.556999207" y="10.836999893" font-family="Times New Roman" font-weight="normal" font-style="normal" font-size="10" fill="#000000"> : dom.webster@example.co.uk</tspan>
						</text>
					</g>
				</g>
				<path d="M217,3 L257,3 L257,143.5 L217,143.5 Z" fill="#d9f0f7" fill-rule="evenodd"></path>
				<path d="M257,3 L562,3 L562,143.5 L257,143.5 Z" fill="#d9f0f7" fill-rule="evenodd"></path>
				<g transform="matrix(1,0,0,1,257,0)" clip-path="url(#clip2)">
					<g transform="matrix(1,0,0,1,0,29.5)">
						<text>
							<tspan x="0" y="13.697999954" font-family="Syncopate" font-weight="normal" font-style="normal" font-size="14" fill="#000000">PROFESSIONAL SUMMARY</tspan>
						</text>
					</g>
					<g transform="matrix(1,0,0,1,0,51.5)">
						<text>
							<tspan x="0" y="10.836999893" font-family="Times New Roman" font-weight="normal" font-style="normal" font-size="10" fill="#000000">Accomplished Operations executive with a successful track record </tspan>
							<tspan x="0" y="23.836999893" font-family="Times New Roman" font-weight="normal" font-style="normal" font-size="10" fill="#000000">overseeing regional Marketing, IT, HR/training and property in company </tspan>
							<tspan x="0" y="36.836997986" font-family="Times New Roman" font-weight="normal" font-style="normal" font-size="10" fill="#000000">and franchise operations for a large chain of restaurants.</tspan>
						</text>
					</g>
				</g>
				<path d="M562,0 L612,0 L612,143.5 L562,143.5 Z" fill="#d9f0f7" fill-rule="evenodd"></path>
				<path d="M50,1.5 L562,1.5 " stroke-width="3" stroke-miterlimit="10" stroke="#000000" fill="none" fill-rule="evenodd"></path>
			</g>
			<g transform="matrix(1,0,0,1,0,233.5)">
				<g transform="matrix(1,0,0,1,50,0)" clip-path="url(#clip3)">
					<g transform="matrix(1,0,0,1,0,25)">
						<text>
							<tspan x="0" y="13.697999954" font-family="Syncopate" font-weight="normal" font-style="normal" font-size="14" fill="#000000">SKILLS</tspan>
						</text>
					</g>
					<g transform="matrix(1,0,0,1,0.400000006,47)">
						<text>
							<tspan x="-0.5" y="10.086999893" font-family="Times New Roman" font-weight="normal" font-style="normal" font-size="7.5" fill="#46464e">●</tspan>
							<tspan x="11.600000381" y="10.836999893" font-family="Times New Roman" font-weight="normal" font-style="normal" font-size="10" fill="#46464e">Executive team leadership</tspan>
						</text>
					</g>
					<g transform="matrix(1,0,0,1,0.400000006,65)">
						<text>
							<tspan x="-0.5" y="10.086999893" font-family="Times New Roman" font-weight="normal" font-style="normal" font-size="7.5" fill="#46464e">●</tspan>
							<tspan x="11.600000381" y="10.836999893" font-family="Times New Roman" font-weight="normal" font-style="normal" font-size="10" fill="#46464e">Multimillion pound P&amp;L management </tspan>
							<tspan x="11.600000381" y="23.836999893" font-family="Times New Roman" font-weight="normal" font-style="normal" font-size="10" fill="#46464e">expertise for South East region</tspan>
						</text>
					</g>
					<g transform="matrix(1,0,0,1,0.400000006,96)">
						<text>
							<tspan x="-0.5" y="10.086999893" font-family="Times New Roman" font-weight="normal" font-style="normal" font-size="7.5" fill="#46464e">●</tspan>
							<tspan x="11.600000381" y="10.836999893" font-family="Times New Roman" font-weight="normal" font-style="normal" font-size="10" fill="#46464e">Client/Vendor relations</tspan>
						</text>
					</g>
					<g transform="matrix(1,0,0,1,0.400000006,114)">
						<text>
							<tspan x="-0.5" y="10.086999893" font-family="Times New Roman" font-weight="normal" font-style="normal" font-size="7.5" fill="#46464e">●</tspan>
							<tspan x="11.600000381" y="10.836999893" font-family="Times New Roman" font-weight="normal" font-style="normal" font-size="10" fill="#46464e">Marketing/product line development</tspan>
						</text>
					</g>
					<g transform="matrix(1,0,0,1,0.400000006,132)">
						<text>
							<tspan x="-0.5" y="10.086999893" font-family="Times New Roman" font-weight="normal" font-style="normal" font-size="7.5" fill="#46464e">●</tspan>
							<tspan x="11.600000381" y="10.836999893" font-family="Times New Roman" font-weight="normal" font-style="normal" font-size="10" fill="#46464e">Staff/training policy development</tspan>
						</text>
					</g>
					<g transform="matrix(1,0,0,1,0.400000006,150)">
						<text>
							<tspan x="-0.5" y="10.086999893" font-family="Times New Roman" font-weight="normal" font-style="normal" font-size="7.5" fill="#46464e">●</tspan>
							<tspan x="11.600000381" y="10.836999893" font-family="Times New Roman" font-weight="normal" font-style="normal" font-size="10" fill="#46464e">Process improvement</tspan>
						</text>
					</g>
				</g>
				<g transform="matrix(1,0,0,1,257,0)" clip-path="url(#clip4)">
					<g transform="matrix(1,0,0,1,0,25)">
						<text>
							<tspan x="0" y="13.697999954" font-family="Syncopate" font-weight="normal" font-style="normal" font-size="14" fill="#000000">OBJECTIVE</tspan>
						</text>
					</g>
					<g transform="matrix(1,0,0,1,0,47)">
						<text>
							<tspan x="0" y="10.836999893" font-family="Times New Roman" font-weight="normal" font-style="normal" font-size="10" fill="#46464e">To find a fulfilling position where I can apply my skills and knowledge.</tspan>
						</text>
					</g>
					<g transform="matrix(1,0,0,1,0,85)">
						<text>
							<tspan x="0" y="13.697999954" font-family="Syncopate" font-weight="normal" font-style="normal" font-size="14" fill="#000000">EXPERIENCE</tspan>
						</text>
					</g>
					<g transform="matrix(1,0,0,1,0,107)">
						<text>
							<tspan x="0" y="10.836999893" font-family="Times New Roman" font-weight="bold" font-style="normal" font-size="10" fill="#000000">Executive Vice President, </tspan>
							<tspan x="111.07900238" y="10.836999893" font-family="Times New Roman" font-weight="normal" font-style="normal" font-size="10" fill="#000000">09/2015 to 02/2019</tspan>
						</text>
					</g>
					<g transform="matrix(1,0,0,1,0,120)">
						<text>
							<tspan x="0" y="10.836999893" font-family="Times New Roman" font-weight="bold" font-style="italic" font-size="10" fill="#000000">Pizza Hut UK &amp; Ireland </tspan>
							<tspan x="102.519996643" y="10.836999893" font-family="Times New Roman" font-weight="normal" font-style="normal" font-size="10" fill="#000000">- St Albans, Herts</tspan>
						</text>
					</g>
					<g transform="matrix(1,0,0,1,0.400000006,133)">
						<text>
							<tspan x="-0.5" y="10.086999893" font-family="Times New Roman" font-weight="normal" font-style="normal" font-size="7.5" fill="#46464e">●</tspan>
							<tspan x="11.600000381" y="10.836999893" font-family="Times New Roman" font-weight="normal" font-style="normal" font-size="10" fill="#46464e">Led operations involved in running the brand including Marketing, IT, </tspan>
							<tspan x="11.600000381" y="23.836999893" font-family="Times New Roman" font-weight="normal" font-style="normal" font-size="10" fill="#46464e">HR/training, development/construction, property and P&amp;L for 200 store </tspan>
							<tspan x="11.600000381" y="36.836997986" font-family="Times New Roman" font-weight="normal" font-style="normal" font-size="10" fill="#46464e">locations.</tspan>
						</text>
					</g>
					<g transform="matrix(1,0,0,1,0.400000006,177)">
						<text>
							<tspan x="-0.5" y="10.086999893" font-family="Times New Roman" font-weight="normal" font-style="normal" font-size="7.5" fill="#46464e">●</tspan>
							<tspan x="11.600000381" y="10.836999893" font-family="Times New Roman" font-weight="normal" font-style="normal" font-size="10" fill="#46464e">Oversaw operations for all regional company and franchise locations.</tspan>
						</text>
					</g>
					<g transform="matrix(1,0,0,1,0.400000006,195)">
						<text>
							<tspan x="-0.5" y="10.086999893" font-family="Times New Roman" font-weight="normal" font-style="normal" font-size="7.5" fill="#46464e">●</tspan>
							<tspan x="11.600000381" y="10.836999893" font-family="Times New Roman" font-weight="normal" font-style="normal" font-size="10" fill="#46464e">Assessed profitability of existing company processes to determine </tspan>
							<tspan x="11.600000381" y="23.836999893" font-family="Times New Roman" font-weight="normal" font-style="normal" font-size="10" fill="#46464e">optimum organisational structure for maximum revenue growth.</tspan>
						</text>
					</g>
					<g transform="matrix(1,0,0,1,0,226)">
						<text>
							<tspan x="0" y="25.836999893" font-family="Times New Roman" font-weight="bold" font-style="normal" font-size="10" fill="#000000">Senior Vice President, </tspan>
							<tspan x="97.202003479" y="25.836999893" font-family="Times New Roman" font-weight="normal" font-style="normal" font-size="10" fill="#000000">08/2007 to 09/2015</tspan>
						</text>
					</g>
					<g transform="matrix(1,0,0,1,0,254)">
						<text>
							<tspan x="0" y="10.836999893" font-family="Times New Roman" font-weight="bold" font-style="italic" font-size="10" fill="#000000">Café Rouge</tspan>
							<tspan x="48.608001709" y="10.836999893" font-family="Times New Roman" font-weight="normal" font-style="normal" font-size="10" fill="#000000"> - London</tspan>
						</text>
					</g>
					<g transform="matrix(1,0,0,1,0.400000006,267)">
						<text>
							<tspan x="-0.5" y="10.086999893" font-family="Times New Roman" font-weight="normal" font-style="normal" font-size="7.5" fill="#46464e">●</tspan>
							<tspan x="11.600000381" y="10.836999893" font-family="Times New Roman" font-weight="normal" font-style="normal" font-size="10" fill="#46464e">Directed departmental alignment on strategies to create strong sales.</tspan>
						</text>
					</g>
					<g transform="matrix(1,0,0,1,0.400000006,285)">
						<text>
							<tspan x="-0.5" y="10.086999893" font-family="Times New Roman" font-weight="normal" font-style="normal" font-size="7.5" fill="#46464e">●</tspan>
							<tspan x="11.600000381" y="10.836999893" font-family="Times New Roman" font-weight="normal" font-style="normal" font-size="10" fill="#46464e">Cultivated strong franchise owner relationships to achieve high </tspan>
							<tspan x="11.600000381" y="23.836999893" font-family="Times New Roman" font-weight="normal" font-style="normal" font-size="10" fill="#46464e">operating standards.</tspan>
						</text>
					</g>
					<g transform="matrix(1,0,0,1,0.400000006,316)">
						<text>
							<tspan x="-0.5" y="10.086999893" font-family="Times New Roman" font-weight="normal" font-style="normal" font-size="7.5" fill="#46464e">●</tspan>
							<tspan x="11.600000381" y="10.836999893" font-family="Times New Roman" font-weight="normal" font-style="normal" font-size="10" fill="#46464e">Implemented process improvements to increase customer loyalty and </tspan>
							<tspan x="11.600000381" y="23.836999893" font-family="Times New Roman" font-weight="normal" font-style="normal" font-size="10" fill="#46464e">satisfaction.</tspan>
						</text>
					</g>
					<g transform="matrix(1,0,0,1,0,347)">
						<text>
							<tspan x="0" y="22.836999893" font-family="Times New Roman" font-weight="normal" font-style="normal" font-size="10" fill="#000000"></tspan>
						</text>
					</g>
					<g transform="matrix(1,0,0,1,0,372)">
						<text>
							<tspan x="0" y="13.697999954" font-family="Syncopate" font-weight="normal" font-style="normal" font-size="14" fill="#000000">EDUCATION</tspan>
						</text>
					</g>
					<g transform="matrix(1,0,0,1,0,394)">
						<text>
							<tspan x="0" y="10.836999893" font-family="Times New Roman" font-weight="bold" font-style="normal" font-size="10" fill="#000000">BA (Hons)</tspan>
							<tspan x="45.284000397" y="10.836999893" font-family="Times New Roman" font-weight="normal" font-style="normal" font-size="10" fill="#000000"> : Business Management, 2006</tspan>
						</text>
					</g>
					<g transform="matrix(1,0,0,1,0,407)">
						<text>
							<tspan x="0" y="10.836999893" font-family="Times New Roman" font-weight="bold" font-style="italic" font-size="10" fill="#000000">University Of Westminster </tspan>
							<tspan x="111.387001038" y="10.836999893" font-family="Times New Roman" font-weight="normal" font-style="normal" font-size="10" fill="#000000">- Greater London </tspan>
						</text>
					</g>
					<g transform="matrix(1,0,0,1,0,420)">
						<text>
							<tspan x="0" y="22.836999893" font-family="Times New Roman" font-weight="normal" font-style="normal" font-size="10" fill="#000000"></tspan>
						</text>
					</g>
					<g transform="matrix(1,0,0,1,0,445)">
						<text>
							<tspan x="0" y="13.697999954" font-family="Syncopate" font-weight="normal" font-style="normal" font-size="14" fill="#000000">QUALIFICATIONS</tspan>
						</text>
					</g>
					<g transform="matrix(1,0,0,1,0,467)">
						<text>
							<tspan x="0" y="10.836999893" font-family="Times New Roman" font-weight="normal" font-style="normal" font-size="10" fill="#46464e">CGMA (Chartered Global Management Accountant) conferred by the </tspan>
							<tspan x="0" y="23.836999893" font-family="Times New Roman" font-weight="normal" font-style="normal" font-size="10" fill="#46464e">Chartered Institute of Management Accountants (CIMA), 2010</tspan>
						</text>
					</g>
				</g>
			</g>
		</g>
	</g>
</svg>