<?xml version="1.0" encoding="utf-8" standalone="yes"?>
<svg
	xmlns="http://www.w3.org/2000/svg"
	xmlns:xlink="http://www.w3.org/1999/xlink" version="1.1" width="816" height="1056" viewBox="0 0 816 1056">
	<!--Generated by Aspose.Words for .NET 18.5-->
	<defs>
		<clipPath id="clip1">
			<path d="M-1,-1 L31,-1 L31,791 L-1,791 Z" clip-rule="evenodd"></path>
		</clipPath>
		<clipPath id="clip2">
			<path d="M-1,-1 L173,-1 L173,791 L-1,791 Z" clip-rule="evenodd"></path>
		</clipPath>
		<clipPath id="clip3">
			<path d="M-1,-1 L321,-1 L321,791 L-1,791 Z" clip-rule="evenodd"></path>
		</clipPath>
		<clipPath id="clip4">
			<path d="M-6.125,-0.375 L617.375,-0.375 L617.375,126.125 L-6.125,126.125 Z" clip-rule="evenodd"></path>
		</clipPath>
		<clipPath id="clip5">
			<path d="M0,0 L612,0 L612,108.5 L0,108.5 Z" clip-rule="evenodd"></path>
		</clipPath>
		<clipPath id="clip6">
			<path d="M0,0 L612,0 L612,6 L0,6 Z" clip-rule="evenodd"></path>
		</clipPath>
		<clipPath id="clip7">
			<path d="M0,0 L612,0 L612,10 L0,10 Z" clip-rule="evenodd"></path>
		</clipPath>
		<style type="text/css">svg{background:white}</style>
	</defs>
	<g transform="scale(1.33333)">
		<g>
			<path d="M0,0 L30,0 L30,790 L0,790 Z" fill="#e6e9eb" fill-rule="evenodd"></path>
			<g transform="matrix(1,0,0,1,0,0)" clip-path="url(#clip1)">
				<g transform="matrix(1,0,0,1,0,30)">
					<text>
						<tspan x="0" y="722.981018066" font-family="Times New Roman" font-weight="normal" font-style="normal" font-size="1" fill="#ffffff">.</tspan>
					</text>
				</g>
			</g>
			<path d="M30,0 L202,0 L202,790 L30,790 Z" fill="#e6e9eb" fill-rule="evenodd"></path>
			<g transform="matrix(1,0,0,1,30,0)" clip-path="url(#clip2)">
				<g transform="matrix(1,0,0,1,0,156.5)">
					<text>
						<tspan x="0" y="16.13699913" font-family="Century Gothic" font-weight="bold" font-style="normal" font-size="13" fill="#000000">CONTACT</tspan>
					</text>
				</g>
				<g transform="matrix(1,0,0,1,15,180.5)">
					<text>
						<tspan x="0" y="13.017999649" font-family="Century Gothic" font-weight="bold" font-style="normal" font-size="9" fill="#000000">Address</tspan>
						<tspan x="35.098999023" y="13.017999649" font-family="Century Gothic" font-weight="normal" font-style="normal" font-size="9" fill="#000000"> :46 Roman Rd </tspan>
						<tspan x="0" y="28.017999649" font-family="Century Gothic" font-weight="normal" font-style="normal" font-size="9" fill="#000000">Leeds, LS2 3ZR</tspan>
					</text>
				</g>
				<g transform="matrix(1,0,0,1,15,215.5)">
					<text>
						<tspan x="0" y="13.017999649" font-family="Century Gothic" font-weight="bold" font-style="normal" font-size="9" fill="#000000">Phone</tspan>
						<tspan x="27.364999771" y="13.017999649" font-family="Century Gothic" font-weight="normal" font-style="normal" font-size="9" fill="#000000"> : 07912 345 678</tspan>
					</text>
				</g>
				<g transform="matrix(1,0,0,1,15,235.5)">
					<text>
						<tspan x="0" y="13.017999649" font-family="Century Gothic" font-weight="bold" font-style="normal" font-size="9" fill="#000000">Email</tspan>
						<tspan x="23.395999908" y="13.017999649" font-family="Century Gothic" font-weight="normal" font-style="normal" font-size="10" fill="#000000"> : dom.webster@example.co.uk</tspan>
					</text>
				</g>
				<g transform="matrix(1,0,0,1,0,255.5)">
					<text>
						<tspan x="0" y="26.13699913" font-family="Century Gothic" font-weight="bold" font-style="normal" font-size="13" fill="#000000">SKILLS</tspan>
					</text>
				</g>
				<g transform="matrix(1,0,0,1,15.850000381,289.5)">
					<text>
						<tspan x="-0.5" y="12.267999649" font-family="Symbol" font-weight="normal" font-style="normal" font-size="6.75" fill="#46464e">●</tspan>
						<tspan x="9.149999619" y="13.017999649" font-family="Century Gothic" font-weight="normal" font-style="normal" font-size="9" fill="#46464e">Executive team leadership</tspan>
					</text>
				</g>
				<g transform="matrix(1,0,0,1,15.850000381,304.5)">
					<text>
						<tspan x="-0.5" y="12.267999649" font-family="Symbol" font-weight="normal" font-style="normal" font-size="6.75" fill="#46464e">●</tspan>
						<tspan x="9.149999619" y="13.017999649" font-family="Century Gothic" font-weight="normal" font-style="normal" font-size="9" fill="#46464e">Multimillion pound P&amp;L </tspan>
						<tspan x="9.149999619" y="28.017999649" font-family="Century Gothic" font-weight="normal" font-style="normal" font-size="9" fill="#46464e">management expertise for South </tspan>
						<tspan x="9.149999619" y="43.017997742" font-family="Century Gothic" font-weight="normal" font-style="normal" font-size="9" fill="#46464e">East region</tspan>
					</text>
				</g>
				<g transform="matrix(1,0,0,1,15.850000381,349.5)">
					<text>
						<tspan x="-0.5" y="12.267999649" font-family="Symbol" font-weight="normal" font-style="normal" font-size="6.75" fill="#46464e">●</tspan>
						<tspan x="9.149999619" y="13.017999649" font-family="Century Gothic" font-weight="normal" font-style="normal" font-size="9" fill="#46464e">Client/Vendor relations</tspan>
					</text>
				</g>
				<g transform="matrix(1,0,0,1,15.850000381,364.5)">
					<text>
						<tspan x="-0.5" y="12.267999649" font-family="Symbol" font-weight="normal" font-style="normal" font-size="6.75" fill="#46464e">●</tspan>
						<tspan x="9.149999619" y="13.017999649" font-family="Century Gothic" font-weight="normal" font-style="normal" font-size="9" fill="#46464e">Marketing/product line </tspan>
						<tspan x="9.149999619" y="28.017999649" font-family="Century Gothic" font-weight="normal" font-style="normal" font-size="9" fill="#46464e">development</tspan>
					</text>
				</g>
				<g transform="matrix(1,0,0,1,15.850000381,394.5)">
					<text>
						<tspan x="-0.5" y="12.267999649" font-family="Symbol" font-weight="normal" font-style="normal" font-size="6.75" fill="#46464e">●</tspan>
						<tspan x="9.149999619" y="13.017999649" font-family="Century Gothic" font-weight="normal" font-style="normal" font-size="9" fill="#46464e">Staff/training policy development</tspan>
					</text>
				</g>
				<g transform="matrix(1,0,0,1,15.850000381,409.5)">
					<text>
						<tspan x="-0.5" y="12.267999649" font-family="Symbol" font-weight="normal" font-style="normal" font-size="6.75" fill="#46464e">●</tspan>
						<tspan x="9.149999619" y="13.017999649" font-family="Century Gothic" font-weight="normal" font-style="normal" font-size="9" fill="#46464e">Process improvement</tspan>
					</text>
				</g>
			</g>
			<path d="M202,0 L232,0 L232,790 L202,790 Z" fill="#e6e9eb" fill-rule="evenodd"></path>
			<g transform="matrix(1,0,0,1,262,0)" clip-path="url(#clip3)">
				<g transform="matrix(1,0,0,1,0,156.5)">
					<text>
						<tspan x="0" y="16.13699913" font-family="Century Gothic" font-weight="bold" font-style="normal" font-size="13" fill="#000000">OBJECTIVE</tspan>
					</text>
				</g>
				<g transform="matrix(1,0,0,1,15,180.5)">
					<text>
						<tspan x="0" y="13.017999649" font-family="Century Gothic" font-weight="normal" font-style="normal" font-size="9" fill="#46464e">To find a fulfilling position where I can apply my skills and knowledge.</tspan>
					</text>
				</g>
				<g transform="matrix(1,0,0,1,0,210.5)">
					<text>
						<tspan x="0" y="16.13699913" font-family="Century Gothic" font-weight="bold" font-style="normal" font-size="13" fill="#000000">PROFESSIONAL SUMMARY</tspan>
					</text>
				</g>
				<g transform="matrix(1,0,0,1,15,234.5)">
					<text>
						<tspan x="0" y="13.017999649" font-family="Century Gothic" font-weight="normal" font-style="normal" font-size="9" fill="#46464e">Accomplished Operations executive with a successful track record </tspan>
						<tspan x="0" y="28.017999649" font-family="Century Gothic" font-weight="normal" font-style="normal" font-size="9" fill="#46464e">overseeing regional Marketing, IT, HR/training and property in </tspan>
						<tspan x="0" y="43.017997742" font-family="Century Gothic" font-weight="normal" font-style="normal" font-size="9" fill="#46464e">company and franchise operations for a large chain of restaurants.</tspan>
					</text>
				</g>
				<g transform="matrix(1,0,0,1,0,294.5)">
					<text>
						<tspan x="0" y="16.13699913" font-family="Century Gothic" font-weight="bold" font-style="normal" font-size="13" fill="#000000">EXPERIENCE</tspan>
					</text>
				</g>
				<g transform="matrix(1,0,0,1,15,318.5)">
					<text>
						<tspan x="0" y="12.798000336" font-family="Century Gothic" font-weight="bold" font-style="normal" font-size="10" fill="#46464e">Executive Vice President, </tspan>
						<tspan x="124.394996643" y="12.798000336" font-family="Century Gothic" font-weight="normal" font-style="normal" font-size="10" fill="#46464e">09/2015 to 02/2019</tspan>
					</text>
				</g>
				<g transform="matrix(1,0,0,1,15,333.5)">
					<text>
						<tspan x="0" y="12.798000336" font-family="Century Gothic" font-weight="bold" font-style="normal" font-size="10" fill="#46464e">Pizza Hut UK &amp; Ireland </tspan>
						<tspan x="106.994003296" y="12.798000336" font-family="Century Gothic" font-weight="normal" font-style="normal" font-size="10" fill="#46464e">- St Albans, Herts</tspan>
					</text>
				</g>
				<g transform="matrix(1,0,0,1,15.399999619,348.5)">
					<text>
						<tspan x="-0.5" y="12.048000336" font-family="Symbol" font-weight="normal" font-style="normal" font-size="7.5" fill="#46464e">●</tspan>
						<tspan x="9.600000381" y="12.798000336" font-family="Century Gothic" font-weight="normal" font-style="normal" font-size="10" fill="#46464e">Led operations involved in running the brand including </tspan>
						<tspan x="9.600000381" y="27.798000336" font-family="Century Gothic" font-weight="normal" font-style="normal" font-size="10" fill="#46464e">Marketing, IT, HR/training, development/construction, </tspan>
						<tspan x="9.600000381" y="42.798000336" font-family="Century Gothic" font-weight="normal" font-style="normal" font-size="10" fill="#46464e">property and P&amp;L for 200 store locations.</tspan>
					</text>
				</g>
				<g transform="matrix(1,0,0,1,15.399999619,393.5)">
					<text>
						<tspan x="-0.5" y="12.048000336" font-family="Symbol" font-weight="normal" font-style="normal" font-size="7.5" fill="#46464e">●</tspan>
						<tspan x="9.600000381" y="12.798000336" font-family="Century Gothic" font-weight="normal" font-style="normal" font-size="10" fill="#46464e">Oversaw operations for all regional company and franchise </tspan>
						<tspan x="9.600000381" y="27.798000336" font-family="Century Gothic" font-weight="normal" font-style="normal" font-size="10" fill="#46464e">locations.</tspan>
					</text>
				</g>
				<g transform="matrix(1,0,0,1,15.399999619,423.5)">
					<text>
						<tspan x="-0.5" y="12.048000336" font-family="Symbol" font-weight="normal" font-style="normal" font-size="7.5" fill="#46464e">●</tspan>
						<tspan x="9.600000381" y="12.798000336" font-family="Century Gothic" font-weight="normal" font-style="normal" font-size="10" fill="#46464e">Assessed profitability of existing company processes to </tspan>
						<tspan x="9.600000381" y="27.798000336" font-family="Century Gothic" font-weight="normal" font-style="normal" font-size="10" fill="#46464e">determine optimum organisational structure for maximum </tspan>
						<tspan x="9.600000381" y="42.798000336" font-family="Century Gothic" font-weight="normal" font-style="normal" font-size="10" fill="#46464e">revenue growth.</tspan>
					</text>
				</g>
				<g transform="matrix(1,0,0,1,15,468.5)">
					<text>
						<tspan x="0" y="19.798000336" font-family="Century Gothic" font-weight="bold" font-style="normal" font-size="10" fill="#46464e">Senior Vice President, </tspan>
						<tspan x="106.992996216" y="19.798000336" font-family="Century Gothic" font-weight="normal" font-style="normal" font-size="10" fill="#46464e">08/2007 to 09/2015</tspan>
					</text>
				</g>
				<g transform="matrix(1,0,0,1,15,490.5)">
					<text>
						<tspan x="0" y="12.798000336" font-family="Century Gothic" font-weight="bold" font-style="normal" font-size="10" fill="#46464e">Café Rouge</tspan>
						<tspan x="57.603000641" y="12.798000336" font-family="Century Gothic" font-weight="normal" font-style="normal" font-size="10" fill="#46464e"> - London</tspan>
					</text>
				</g>
				<g transform="matrix(1,0,0,1,15.399999619,505.5)">
					<text>
						<tspan x="-0.5" y="12.048000336" font-family="Symbol" font-weight="normal" font-style="normal" font-size="7.5" fill="#46464e">●</tspan>
						<tspan x="9.600000381" y="12.798000336" font-family="Century Gothic" font-weight="normal" font-style="normal" font-size="10" fill="#46464e">Directed departmental alignment on strategies to create </tspan>
						<tspan x="9.600000381" y="27.798000336" font-family="Century Gothic" font-weight="normal" font-style="normal" font-size="10" fill="#46464e">strong sales.</tspan>
					</text>
				</g>
				<g transform="matrix(1,0,0,1,15.399999619,535.5)">
					<text>
						<tspan x="-0.5" y="12.048000336" font-family="Symbol" font-weight="normal" font-style="normal" font-size="7.5" fill="#46464e">●</tspan>
						<tspan x="9.600000381" y="12.798000336" font-family="Century Gothic" font-weight="normal" font-style="normal" font-size="10" fill="#46464e">Cultivated strong franchise owner relationships to achieve </tspan>
						<tspan x="9.600000381" y="27.798000336" font-family="Century Gothic" font-weight="normal" font-style="normal" font-size="10" fill="#46464e">high operating standards.</tspan>
					</text>
				</g>
				<g transform="matrix(1,0,0,1,15.399999619,565.5)">
					<text>
						<tspan x="-0.5" y="12.048000336" font-family="Symbol" font-weight="normal" font-style="normal" font-size="7.5" fill="#46464e">●</tspan>
						<tspan x="9.600000381" y="12.798000336" font-family="Century Gothic" font-weight="normal" font-style="normal" font-size="10" fill="#46464e">Implemented process improvements to increase customer </tspan>
						<tspan x="9.600000381" y="27.798000336" font-family="Century Gothic" font-weight="normal" font-style="normal" font-size="10" fill="#46464e">loyalty and satisfaction.</tspan>
					</text>
				</g>
				<g transform="matrix(1,0,0,1,0,595.5)">
					<text>
						<tspan x="0" y="12.798000336" font-family="Century Gothic" font-weight="normal" font-style="normal" font-size="10" fill="#46464e"></tspan>
					</text>
				</g>
				<g transform="matrix(1,0,0,1,0,610.5)">
					<text>
						<tspan x="0" y="16.13699913" font-family="Century Gothic" font-weight="bold" font-style="normal" font-size="13" fill="#000000">EDUCATION</tspan>
					</text>
				</g>
				<g transform="matrix(1,0,0,1,15,634.5)">
					<text>
						<tspan x="0" y="12.798000336" font-family="Century Gothic" font-weight="bold" font-style="normal" font-size="10" fill="#46464e">BA (Hons)</tspan>
						<tspan x="47.196998596" y="12.798000336" font-family="Century Gothic" font-weight="normal" font-style="normal" font-size="10" fill="#46464e"> : </tspan>
						<tspan x="55.504001617" y="12.798000336" font-family="Century Gothic" font-weight="bold" font-style="normal" font-size="10" fill="#46464e">Business Management</tspan>
						<tspan x="164.108001709" y="12.798000336" font-family="Century Gothic" font-weight="normal" font-style="normal" font-size="10" fill="#46464e">, 2006</tspan>
					</text>
				</g>
				<g transform="matrix(1,0,0,1,15,649.5)">
					<text>
						<tspan x="0" y="12.798000336" font-family="Century Gothic" font-weight="bold" font-style="normal" font-size="10" fill="#46464e">University Of Westminster </tspan>
						<tspan x="122.778999329" y="12.798000336" font-family="Century Gothic" font-weight="normal" font-style="normal" font-size="10" fill="#46464e">- Greater London </tspan>
					</text>
				</g>
				<g transform="matrix(1,0,0,1,0,664.5)">
					<text>
						<tspan x="0" y="12.798000336" font-family="Century Gothic" font-weight="normal" font-style="normal" font-size="10" fill="#46464e"></tspan>
					</text>
				</g>
				<g transform="matrix(1,0,0,1,0,679.5)">
					<text>
						<tspan x="0" y="16.13699913" font-family="Century Gothic" font-weight="bold" font-style="normal" font-size="13" fill="#000000">QUALIFICATIONS</tspan>
					</text>
				</g>
				<g transform="matrix(1,0,0,1,15,703.5)">
					<text>
						<tspan x="0" y="13.017999649" font-family="Century Gothic" font-weight="normal" font-style="normal" font-size="9" fill="#46464e">CGMA (Chartered Global Management Accountant) conferred by </tspan>
						<tspan x="0" y="28.017999649" font-family="Century Gothic" font-weight="normal" font-style="normal" font-size="9" fill="#46464e">the Chartered Institute of Management Accountants (CIMA), 2010</tspan>
					</text>
				</g>
			</g>
			<g transform="matrix(1,0,0,1,0,790)">
				<text>
					<tspan x="0" y="0.077" font-family="Times New Roman" font-weight="normal" font-style="normal" font-size="1" fill="#ffffff">.</tspan>
				</text>
			</g>
			<path d="M0,0 L612,0 L612,126.5 L0,126.5 Z" stroke-width="0.75" stroke-miterlimit="10" stroke="#000000" stroke-opacity="0" fill="none" fill-rule="evenodd"></path>
			<g transform="matrix(1,0,0,1,0.37500003,0.375)" clip-path="url(#clip4)">
				<g transform="matrix(1,0,0,1,0,0)" clip-path="url(#clip5)">
					<path d="M0,0 L612,0 L612,108.5 L0,108.5 Z" fill="#576d7b" fill-rule="evenodd"></path>
					<text>
						<tspan x="140" y="70.599998474" font-family="Oswald" font-weight="normal" font-style="normal" font-size="40" fill="#eef0f1">DOM WEBSTER</tspan>
					</text>
				</g>
				<g transform="matrix(1,0,0,1,0,108.5)">
					<g transform="matrix(1,0,0,1,0,0)" clip-path="url(#clip6)">
						<path d="M0,0 L612,0 L612,6 L0,6 Z" fill="#576d7b" fill-rule="evenodd"></path>
					</g>
				</g>
				<g transform="matrix(1,0,0,1,0,114.5)">
					<g transform="matrix(1,0,0,1,0,0)" clip-path="url(#clip7)">
						<path d="M0,0 L612,0 L612,10 L0,10 Z" fill="#e6e9eb" fill-rule="evenodd"></path>
					</g>
				</g>
				<path d="M0,110 L612,110 " stroke-width="3" stroke-miterlimit="10" stroke="#ffffff" fill="none" fill-rule="evenodd"></path>
			</g>
		</g>
	</g>
</svg>