<?xml version="1.0" encoding="utf-8" standalone="yes"?>
<svg
	xmlns="http://www.w3.org/2000/svg"
	xmlns:xlink="http://www.w3.org/1999/xlink" version="1.1" width="816" height="1056">
	<!--Generated by Aspose.Words for .NET 18.5-->
	<defs>
		<clipPath id="clip1">
			<path d="M0,0 L612,0 L612,0.096000001 L0,0.096000001 Z" clip-rule="evenodd"></path>
		</clipPath>
		<clipPath id="clip10">
			<path d="M0,0 L4.491142273,0 L4.491142273,4.484449387 L0,4.484449387 Z" clip-rule="evenodd"></path>
		</clipPath>
		<clipPath id="clip11">
			<path d="M0,0 L1000,0 L1000,1000 L0,1000 Z" clip-rule="evenodd"></path>
		</clipPath>
		<clipPath id="clip12">
			<path d="M-1,-1 L134,-1 L134,73.220001221 L-1,73.220001221 Z" clip-rule="evenodd"></path>
		</clipPath>
		<clipPath id="clip13">
			<path d="M-1,-1 L440,-1 L440,73.220001221 L-1,73.220001221 Z" clip-rule="evenodd"></path>
		</clipPath>
		<clipPath id="clip14">
			<path d="M-1,-1 L134,-1 L134,92.459999084 L-1,92.459999084 Z" clip-rule="evenodd"></path>
		</clipPath>
		<clipPath id="clip15">
			<path d="M-1,-1 L219.5,-1 L219.5,67.459999084 L-1,67.459999084 Z" clip-rule="evenodd"></path>
		</clipPath>
		<clipPath id="clip16">
			<path d="M-1,-1 L219.5,-1 L219.5,67.459999084 L-1,67.459999084 Z" clip-rule="evenodd"></path>
		</clipPath>
		<clipPath id="clip17">
			<path d="M-1,-1 L440,-1 L440,92.459999084 L-1,92.459999084 Z" clip-rule="evenodd"></path>
		</clipPath>
		<clipPath id="clip18">
			<path d="M-1,-1 L134,-1 L134,230.880004883 L-1,230.880004883 Z" clip-rule="evenodd"></path>
		</clipPath>
		<clipPath id="clip19">
			<path d="M-1,-1 L440,-1 L440,230.880004883 L-1,230.880004883 Z" clip-rule="evenodd"></path>
		</clipPath>
		<clipPath id="clip2">
			<path d="M0,0 L612,0 L612,0.096000001 L0,0.096000001 Z" clip-rule="evenodd"></path>
		</clipPath>
		<clipPath id="clip20">
			<path d="M-1,-1 L134,-1 L134,57.479999542 L-1,57.479999542 Z" clip-rule="evenodd"></path>
		</clipPath>
		<clipPath id="clip21">
			<path d="M-1,-1 L440,-1 L440,57.479999542 L-1,57.479999542 Z" clip-rule="evenodd"></path>
		</clipPath>
		<clipPath id="clip22">
			<path d="M-1,-1 L134,-1 L134,57.479999542 L-1,57.479999542 Z" clip-rule="evenodd"></path>
		</clipPath>
		<clipPath id="clip23">
			<path d="M-1,-1 L440,-1 L440,57.479999542 L-1,57.479999542 Z" clip-rule="evenodd"></path>
		</clipPath>
		<clipPath id="clip3">
			<path d="M-1,0 L612.299987793,0 L612.299987793,133.699996948 L-1,133.699996948 Z" clip-rule="evenodd"></path>
		</clipPath>
		<clipPath id="clip4">
			<path d="M0,0 L4.491142273,0 L4.491142273,4.484449387 L0,4.484449387 Z" clip-rule="evenodd"></path>
		</clipPath>
		<clipPath id="clip5">
			<path d="M0,0 L1000,0 L1000,1000 L0,1000 Z" clip-rule="evenodd"></path>
		</clipPath>
		<clipPath id="clip6">
			<path d="M0,0 L4.491142273,0 L4.491142273,4.484449387 L0,4.484449387 Z" clip-rule="evenodd"></path>
		</clipPath>
		<clipPath id="clip7">
			<path d="M0,0 L1000,0 L1000,1000 L0,1000 Z" clip-rule="evenodd"></path>
		</clipPath>
		<clipPath id="clip8">
			<path d="M0,0 L4.491142273,0 L4.491142273,4.484449387 L0,4.484449387 Z" clip-rule="evenodd"></path>
		</clipPath>
		<clipPath id="clip9">
			<path d="M0,0 L1000,0 L1000,1000 L0,1000 Z" clip-rule="evenodd"></path>
		</clipPath>
		<style type="text/css">svg{background:white}</style>
	</defs>
	<g transform="scale(1.33333)">
		<g>
			<path d="M0,0 L600,0 L600,450 L0,450 Z" fill="#ffffff" fill-rule="evenodd"></path>
			<g transform="matrix(1,0,0,1,600,0)">
				<path d="M0,0 L600,0 L600,450 L0,450 Z" fill="#ffffff" fill-rule="evenodd"></path>
			</g>
			<g transform="matrix(1,0,0,1,0,450)">
				<path d="M0,0 L600,0 L600,450 L0,450 Z" fill="#ffffff" fill-rule="evenodd"></path>
			</g>
			<g transform="matrix(1,0,0,1,600,450)">
				<path d="M0,0 L600,0 L600,450 L0,450 Z" fill="#ffffff" fill-rule="evenodd"></path>
			</g>
			<g transform="matrix(1,0,0,1,0,0)" clip-path="url(#clip1)">
				<text>
					<tspan x="0" y="0.077" font-family="Times New Roman" font-weight="normal" font-style="normal" font-size="1" fill="#ffffff">.</tspan>
				</text>
			</g>
			<g transform="matrix(1,0,0,1,0,791.903991699)" clip-path="url(#clip2)">
				<text>
					<tspan x="0" y="0.077" font-family="Times New Roman" font-weight="normal" font-style="normal" font-size="1" fill="#ffffff">.</tspan>
				</text>
			</g>
			<g transform="matrix(1,0,0,1,0,0.096000001)">
				<g transform="matrix(1,0,0,1,0.5,0)">
					<path d="M0.200000003,1 L611.5,1 L611.5,132.699996948 L0.200000003,132.699996948 Z" fill="#009bcc" fill-rule="evenodd"></path>
					<g transform="matrix(1,0,0,1,0.200000003,0)" clip-path="url(#clip3)">
						<g transform="matrix(1,0,0,1,1,24)">
							<text>
								<tspan x="153.949996948" y="45.400001526" font-family="Saira" font-weight="bold" font-style="normal" font-size="40" fill="#ffffff">DOM WEBSTER</tspan>
							</text>
						</g>
						<g transform="matrix(1,0,0,1,1,86.959999084)">
							<text>
								<tspan x="83.443000793" y="26.350000381" font-family="Saira" font-weight="normal" font-style="normal" font-size="10" fill="#ffffff"></tspan>
							</text>
							<g transform="matrix(1,0,0,1,110.492996216,21.866001129)">
								<g clip-path="url(#clip4)">
									<g transform="matrix(0.004491142,0,0,0.00448445,0,0)" clip-path="url(#clip5)">
										<g>
											<path d="M0,0 L1000,0 L1000,1000 L0,1000 Z" transform="matrix(1,0,0,1,0,0)" fill="#ffffff" fill-rule="evenodd"></path>
											<path d="M0,0 L1000,0 L1000,0 L1000,1000 L1000,1000 L0,1000 Z" transform="matrix(1,0,0,1,0,0)" fill="#2a5978" fill-rule="evenodd"></path>
										</g>
									</g>
								</g>
							</g>
							<text>
								<tspan x="124.98400116" y="26.350000381" font-family="Saira" font-weight="normal" font-style="normal" font-size="10" fill="#ffffff">    46 Roman Rd, Leeds, LS2 3ZR    </tspan>
							</text>
							<g transform="matrix(1,0,0,1,258.523986816,21.866001129)">
								<g clip-path="url(#clip6)">
									<g transform="matrix(0.004491142,0,0,0.00448445,0,0)" clip-path="url(#clip7)">
										<g>
											<path d="M0,0 L1000,0 L1000,1000 L0,1000 Z" transform="matrix(1,0,0,1,0,0)" fill="#ffffff" fill-rule="evenodd"></path>
											<path d="M0,0 L1000,0 L1000,0 L1000,1000 L1000,1000 L0,1000 Z" transform="matrix(1,0,0,1,0,0)" fill="#2a5978" fill-rule="evenodd"></path>
										</g>
									</g>
								</g>
							</g>
							<text>
								<tspan x="270.015014648" y="26.350000381" font-family="Saira" font-weight="normal" font-style="normal" font-size="10" fill="#ffffff">   07912 345 678    </tspan>
							</text>
							<g transform="matrix(1,0,0,1,338.994995117,21.866001129)">
								<g clip-path="url(#clip8)">
									<g transform="matrix(0.004491142,0,0,0.00448445,0,0)" clip-path="url(#clip9)">
										<g>
											<path d="M0,0 L1000,0 L1000,1000 L0,1000 Z" transform="matrix(1,0,0,1,0,0)" fill="#ffffff" fill-rule="evenodd"></path>
											<path d="M0,0 L1000,0 L1000,0 L1000,1000 L1000,1000 L0,1000 Z" transform="matrix(1,0,0,1,0,0)" fill="#2a5978" fill-rule="evenodd"></path>
										</g>
									</g>
								</g>
							</g>
							<text>
								<tspan x="353.485992432" y="26.350000381" font-family="Saira" font-weight="normal" font-style="normal" font-size="10" fill="#ffffff">    dom.webster@example.co.uk   </tspan>
							</text>
							<g transform="matrix(1,0,0,1,480.315979004,21.866001129)">
								<g clip-path="url(#clip10)">
									<g transform="matrix(0.004491142,0,0,0.00448445,0,0)" clip-path="url(#clip11)">
										<g>
											<path d="M0,0 L1000,0 L1000,1000 L0,1000 Z" transform="matrix(1,0,0,1,0,0)" fill="#ffffff" fill-rule="evenodd"></path>
											<path d="M0,0 L1000,0 L1000,0 L1000,1000 L1000,1000 L0,1000 Z" transform="matrix(1,0,0,1,0,0)" fill="#2a5978" fill-rule="evenodd"></path>
										</g>
									</g>
								</g>
							</g>
							<text>
								<tspan x="518.807006836" y="26.350000381" font-family="Saira" font-weight="normal" font-style="normal" font-size="10" fill="#ffffff"></tspan>
							</text>
						</g>
					</g>
					<path d="M0,1 L0,132.699996948 " stroke-width="1" stroke-miterlimit="10" stroke="#009bcc" fill="none" fill-rule="evenodd"></path>
					<path d="M612,1 L612,132.699996948 " stroke-width="1" stroke-miterlimit="10" stroke="#009bcc" fill="none" fill-rule="evenodd"></path>
					<path d="M-0.5,0.5 L612.5,0.5 " stroke-width="1" stroke-miterlimit="10" stroke="#009bcc" fill="none" fill-rule="evenodd"></path>
					<path d="M-0.5,133.199996948 L612.5,133.199996948 " stroke-width="1" stroke-miterlimit="10" stroke="#009bcc" fill="none" fill-rule="evenodd"></path>
				</g>
			</g>
			<g transform="matrix(1,0,0,1,20,133.796005249)">
				<text>
					<tspan x="0" y="1.13499999" font-family="Saira" font-weight="normal" font-style="normal" font-size="1" fill="#494c4e"></tspan>
				</text>
				<g transform="matrix(1,0,0,1,2,26.573999405)">
					<g transform="matrix(1,0,0,1,0,0)" clip-path="url(#clip12)">
						<g transform="matrix(1,0,0,1,2,0)">
							<text>
								<tspan x="0" y="13.619999886" font-family="Saira" font-weight="bold" font-style="normal" font-size="12" fill="#009bcc">PROFESSIONAL </tspan>
								<tspan x="0" y="32.50799942" font-family="Saira" font-weight="bold" font-style="normal" font-size="12" fill="#009bcc">SUMMARY</tspan>
							</text>
						</g>
					</g>
					<g transform="matrix(1,0,0,1,133,0)" clip-path="url(#clip13)">
						<g transform="matrix(1,0,0,1,2,0)">
							<text>
								<tspan x="0" y="11.350000381" font-family="Saira" font-weight="normal" font-style="normal" font-size="10" fill="#494c4e">Accomplished Operations executive with a successful track record overseeing regional </tspan>
								<tspan x="0" y="27.090000153" font-family="Saira" font-weight="normal" font-style="normal" font-size="10" fill="#494c4e">Marketing, IT, HR/training and property in company and franchise operations for a large chain </tspan>
								<tspan x="0" y="42.830001831" font-family="Saira" font-weight="normal" font-style="normal" font-size="10" fill="#494c4e">of restaurants.</tspan>
							</text>
						</g>
						<g transform="matrix(1,0,0,1,2,47.220001221)">
							<text>
								<tspan x="0" y="20.61000061" font-family="Saira" font-weight="bold" font-style="normal" font-size="10" fill="#494c4e"></tspan>
							</text>
						</g>
					</g>
				</g>
				<g transform="matrix(1,0,0,1,0,98.793998718)">
					<text>
						<tspan x="0" y="3.13499999" font-family="Saira" font-weight="normal" font-style="normal" font-size="1" fill="#494c4e"></tspan>
					</text>
				</g>
				<path d="M-1.450000048,99.793998718 L573.450012207,99.793998718 " stroke-width="2" stroke-miterlimit="10" stroke="#009bcc" fill="none" fill-rule="evenodd"></path>
				<g transform="matrix(1,0,0,1,2,107.367996216)">
					<g transform="matrix(1,0,0,1,0,0)" clip-path="url(#clip14)">
						<g transform="matrix(1,0,0,1,2,0)">
							<text>
								<tspan x="0" y="13.619999886" font-family="Saira" font-weight="bold" font-style="normal" font-size="12" fill="#009bcc">KEY SKILLS</tspan>
							</text>
						</g>
					</g>
				</g>
				<g transform="matrix(1,0,0,1,137,107.367996216)">
					<g transform="matrix(1,0,0,1,0,0)" clip-path="url(#clip15)">
						<g transform="matrix(1,0,0,1,4.650000095,0.25)">
							<text>
								<tspan x="-0.5" y="10.600000381" font-family="Symbol" font-weight="normal" font-style="normal" font-size="7.5" fill="#494c4e">●</tspan>
								<tspan x="11.600000381" y="11.350000381" font-family="Saira" font-weight="normal" font-style="normal" font-size="10" fill="#494c4e">Executive team leadership</tspan>
							</text>
						</g>
						<g transform="matrix(1,0,0,1,4.650000095,15.989999771)">
							<text>
								<tspan x="-0.5" y="10.600000381" font-family="Symbol" font-weight="normal" font-style="normal" font-size="7.5" fill="#494c4e">●</tspan>
								<tspan x="11.600000381" y="11.350000381" font-family="Saira" font-weight="normal" font-style="normal" font-size="10" fill="#494c4e">Multimillion pound P&amp;L management </tspan>
								<tspan x="11.600000381" y="27.090000153" font-family="Saira" font-weight="normal" font-style="normal" font-size="10" fill="#494c4e">expertise for South East region</tspan>
							</text>
						</g>
						<g transform="matrix(1,0,0,1,4.650000095,47.470001221)">
							<text>
								<tspan x="-0.5" y="10.600000381" font-family="Symbol" font-weight="normal" font-style="normal" font-size="7.5" fill="#494c4e">●</tspan>
								<tspan x="11.600000381" y="11.350000381" font-family="Saira" font-weight="normal" font-style="normal" font-size="10" fill="#494c4e">Client/Vendor relations</tspan>
							</text>
						</g>
					</g>
					<g transform="matrix(1,0,0,1,218.5,0)" clip-path="url(#clip16)">
						<g transform="matrix(1,0,0,1,4.650000095,0.25)">
							<text>
								<tspan x="-0.5" y="10.600000381" font-family="Symbol" font-weight="normal" font-style="normal" font-size="7.5" fill="#494c4e">●</tspan>
								<tspan x="11.600000381" y="11.350000381" font-family="Saira" font-weight="normal" font-style="normal" font-size="10" fill="#494c4e">Marketing/product line development</tspan>
							</text>
						</g>
						<g transform="matrix(1,0,0,1,4.650000095,15.989999771)">
							<text>
								<tspan x="-0.5" y="10.600000381" font-family="Symbol" font-weight="normal" font-style="normal" font-size="7.5" fill="#494c4e">●</tspan>
								<tspan x="11.600000381" y="11.350000381" font-family="Saira" font-weight="normal" font-style="normal" font-size="10" fill="#494c4e">Staff/training policy development</tspan>
							</text>
						</g>
						<g transform="matrix(1,0,0,1,4.650000095,31.729999542)">
							<text>
								<tspan x="-0.5" y="10.600000381" font-family="Symbol" font-weight="normal" font-style="normal" font-size="7.5" fill="#494c4e">●</tspan>
								<tspan x="11.600000381" y="11.350000381" font-family="Saira" font-weight="normal" font-style="normal" font-size="10" fill="#494c4e">Process improvement</tspan>
							</text>
						</g>
					</g>
				</g>
				<g transform="matrix(1,0,0,1,2,107.367996216)">
					<g transform="matrix(1,0,0,1,133,0)" clip-path="url(#clip17)">
						<g transform="matrix(1,0,0,1,2,66.459999084)">
							<text>
								<tspan x="0" y="20.61000061" font-family="Saira" font-weight="bold" font-style="normal" font-size="10" fill="#494c4e"></tspan>
							</text>
						</g>
					</g>
				</g>
				<g transform="matrix(1,0,0,1,0,198.82800293)">
					<text>
						<tspan x="0" y="3.13499999" font-family="Saira" font-weight="normal" font-style="normal" font-size="1" fill="#494c4e"></tspan>
					</text>
				</g>
				<path d="M-1.450000048,199.82800293 L573.450012207,199.82800293 " stroke-width="2" stroke-miterlimit="10" stroke="#009bcc" fill="none" fill-rule="evenodd"></path>
				<g transform="matrix(1,0,0,1,2,207.401992798)">
					<g transform="matrix(1,0,0,1,0,0)" clip-path="url(#clip18)">
						<g transform="matrix(1,0,0,1,2,0)">
							<text>
								<tspan x="0" y="13.619999886" font-family="Saira" font-weight="bold" font-style="normal" font-size="12" fill="#009bcc">WORK EXPERIENCE</tspan>
							</text>
						</g>
					</g>
					<g transform="matrix(1,0,0,1,133,0)" clip-path="url(#clip19)">
						<g transform="matrix(1,0,0,1,2,0)">
							<text>
								<tspan x="0" y="11.350000381" font-family="Saira" font-weight="bold" font-style="normal" font-size="10" fill="#494c4e">Executive Vice President</tspan>
								<tspan x="115.730003357" y="11.350000381" font-family="Saira" font-weight="normal" font-style="normal" font-size="10" fill="#494c4e"> 09/2015 to 02/2019</tspan>
							</text>
						</g>
						<g transform="matrix(1,0,0,1,2,15.739999771)">
							<text>
								<tspan x="0" y="11.350000381" font-family="Saira" font-weight="normal" font-style="normal" font-size="10" fill="#494c4e">Pizza Hut UK &amp; Ireland , St Albans, Herts</tspan>
							</text>
						</g>
						<g transform="matrix(1,0,0,1,6.400000095,31.479999542)">
							<text>
								<tspan x="-0.5" y="10.600000381" font-family="Symbol" font-weight="normal" font-style="normal" font-size="7.5" fill="#494c4e">●</tspan>
								<tspan x="11.600000381" y="11.350000381" font-family="Saira" font-weight="normal" font-style="normal" font-size="10" fill="#494c4e">Led operations involved in running the brand including Marketing, IT, HR/training, </tspan>
								<tspan x="11.600000381" y="27.090000153" font-family="Saira" font-weight="normal" font-style="normal" font-size="10" fill="#494c4e">development/construction, property and P&amp;L for 200 store locations.</tspan>
							</text>
						</g>
						<g transform="matrix(1,0,0,1,6.400000095,62.959999084)">
							<text>
								<tspan x="-0.5" y="10.600000381" font-family="Symbol" font-weight="normal" font-style="normal" font-size="7.5" fill="#494c4e">●</tspan>
								<tspan x="11.600000381" y="11.350000381" font-family="Saira" font-weight="normal" font-style="normal" font-size="10" fill="#494c4e">Oversaw operations for all regional company and franchise locations.</tspan>
							</text>
						</g>
						<g transform="matrix(1,0,0,1,6.400000095,78.699996948)">
							<text>
								<tspan x="-0.5" y="10.600000381" font-family="Symbol" font-weight="normal" font-style="normal" font-size="7.5" fill="#494c4e">●</tspan>
								<tspan x="11.600000381" y="11.350000381" font-family="Saira" font-weight="normal" font-style="normal" font-size="10" fill="#494c4e">Assessed profitability of existing company processes to determine optimum organisational </tspan>
								<tspan x="11.600000381" y="27.090000153" font-family="Saira" font-weight="normal" font-style="normal" font-size="10" fill="#494c4e">structure for maximum revenue growth.</tspan>
							</text>
						</g>
						<g transform="matrix(1,0,0,1,2,113.180000305)">
							<text>
								<tspan x="0" y="21.350000381" font-family="Saira" font-weight="bold" font-style="normal" font-size="10" fill="#494c4e">Senior Vice President</tspan>
								<tspan x="100.199996948" y="21.350000381" font-family="Saira" font-weight="normal" font-style="normal" font-size="10" fill="#494c4e"> 08/2007 to 09/2015</tspan>
							</text>
						</g>
						<g transform="matrix(1,0,0,1,2,138.919998169)">
							<text>
								<tspan x="0" y="11.350000381" font-family="Saira" font-weight="normal" font-style="normal" font-size="10" fill="#494c4e">Café Rouge, London</tspan>
							</text>
						</g>
						<g transform="matrix(1,0,0,1,6.400000095,154.660003662)">
							<text>
								<tspan x="-0.5" y="10.600000381" font-family="Symbol" font-weight="normal" font-style="normal" font-size="7.5" fill="#494c4e">●</tspan>
								<tspan x="11.600000381" y="11.350000381" font-family="Saira" font-weight="normal" font-style="normal" font-size="10" fill="#494c4e">Directed departmental alignment on strategies to create strong sales.</tspan>
							</text>
						</g>
						<g transform="matrix(1,0,0,1,6.400000095,170.399993896)">
							<text>
								<tspan x="-0.5" y="10.600000381" font-family="Symbol" font-weight="normal" font-style="normal" font-size="7.5" fill="#494c4e">●</tspan>
								<tspan x="11.600000381" y="11.350000381" font-family="Saira" font-weight="normal" font-style="normal" font-size="10" fill="#494c4e">Cultivated strong franchise owner relationships to achieve high operating standards.</tspan>
							</text>
						</g>
						<g transform="matrix(1,0,0,1,6.400000095,186.13999939)">
							<text>
								<tspan x="-0.5" y="10.600000381" font-family="Symbol" font-weight="normal" font-style="normal" font-size="7.5" fill="#494c4e">●</tspan>
								<tspan x="11.600000381" y="11.350000381" font-family="Saira" font-weight="normal" font-style="normal" font-size="10" fill="#494c4e">Implemented process improvements to increase customer loyalty and satisfaction.</tspan>
							</text>
						</g>
						<g transform="matrix(1,0,0,1,2,204.880004883)">
							<text>
								<tspan x="0" y="20.61000061" font-family="Saira" font-weight="bold" font-style="normal" font-size="10" fill="#494c4e"></tspan>
							</text>
						</g>
					</g>
				</g>
				<g transform="matrix(1,0,0,1,0,437.282012939)">
					<text>
						<tspan x="0" y="3.13499999" font-family="Saira" font-weight="normal" font-style="normal" font-size="1" fill="#494c4e"></tspan>
					</text>
				</g>
				<path d="M-1.450000048,438.282012939 L573.450012207,438.282012939 " stroke-width="2" stroke-miterlimit="10" stroke="#009bcc" fill="none" fill-rule="evenodd"></path>
				<g transform="matrix(1,0,0,1,2,445.855987549)">
					<g transform="matrix(1,0,0,1,0,0)" clip-path="url(#clip20)">
						<g transform="matrix(1,0,0,1,2,0)">
							<text>
								<tspan x="0" y="13.619999886" font-family="Saira" font-weight="bold" font-style="normal" font-size="12" fill="#009bcc">EDUCATION</tspan>
							</text>
						</g>
					</g>
					<g transform="matrix(1,0,0,1,133,0)" clip-path="url(#clip21)">
						<g transform="matrix(1,0,0,1,2,0)">
							<text>
								<tspan x="0" y="11.350000381" font-family="Saira" font-weight="normal" font-style="normal" font-size="10" fill="#494c4e">BA (Hons) : Business Management, 2006</tspan>
							</text>
						</g>
						<g transform="matrix(1,0,0,1,2,15.739999771)">
							<text>
								<tspan x="0" y="11.350000381" font-family="Saira" font-weight="bold" font-style="normal" font-size="10" fill="#494c4e">University Of Westminster </tspan>
								<tspan x="127.730003357" y="11.350000381" font-family="Saira" font-weight="normal" font-style="normal" font-size="10" fill="#494c4e">- Greater London </tspan>
							</text>
						</g>
						<g transform="matrix(1,0,0,1,2,31.479999542)">
							<text>
								<tspan x="0" y="20.61000061" font-family="Saira" font-weight="bold" font-style="normal" font-size="10" fill="#494c4e"></tspan>
							</text>
						</g>
					</g>
				</g>
				<g transform="matrix(1,0,0,1,0,502.335998535)">
					<text>
						<tspan x="0" y="3.13499999" font-family="Saira" font-weight="normal" font-style="normal" font-size="1" fill="#494c4e"></tspan>
					</text>
				</g>
				<path d="M-1.450000048,503.335998535 L573.450012207,503.335998535 " stroke-width="2" stroke-miterlimit="10" stroke="#009bcc" fill="none" fill-rule="evenodd"></path>
				<g transform="matrix(1,0,0,1,2,510.910003662)">
					<g transform="matrix(1,0,0,1,0,0)" clip-path="url(#clip22)">
						<g transform="matrix(1,0,0,1,2,0)">
							<text>
								<tspan x="0" y="13.619999886" font-family="Saira" font-weight="bold" font-style="normal" font-size="12" fill="#009bcc">CERTIFICATIONS</tspan>
							</text>
						</g>
					</g>
					<g transform="matrix(1,0,0,1,133,0)" clip-path="url(#clip23)">
						<g transform="matrix(1,0,0,1,2,0)">
							<text>
								<tspan x="0" y="11.350000381" font-family="Saira" font-weight="normal" font-style="normal" font-size="10" fill="#494c4e">CGMA (Chartered Global Management Accountant) conferred by the Chartered Institute of </tspan>
								<tspan x="0" y="27.090000153" font-family="Saira" font-weight="normal" font-style="normal" font-size="10" fill="#494c4e">Management Accountants (CIMA), 2010</tspan>
							</text>
						</g>
						<g transform="matrix(1,0,0,1,2,31.479999542)">
							<text>
								<tspan x="0" y="20.61000061" font-family="Saira" font-weight="bold" font-style="normal" font-size="10" fill="#494c4e"></tspan>
							</text>
						</g>
					</g>
				</g>
			</g>
		</g>
	</g>
</svg>